# Created by FreeCAD <http://www.freecadweb.org>
v 23.500000 -40.599998 5.200000
v 15.500000 -40.599998 5.200000
v 15.500000 -48.599998 5.200000
v 23.500000 -48.599998 5.200000
v 15.500000 -46.599998 -5.000000
v 15.500000 -40.599998 -15.600000
v 15.500000 -46.599998 -15.600000
v 15.500000 -48.599998 0.000000
v 23.500000 -48.599998 0.000000
v 23.500000 -46.599998 -5.000000
v 23.500000 -40.599998 -15.600000
v 23.500000 -46.599998 -15.600000
v 18.534290 -40.599998 -14.399073
v 15.500000 -40.599998 -15.600000
v 18.227531 -40.599998 -14.127309
v 17.994724 -40.599998 -13.790030
v 18.897171 -40.599998 -14.589528
v 17.849400 -40.599998 -13.406837
v 19.295088 -40.599998 -14.687605
v 17.799999 -40.599998 -13.000000
v 17.799999 -40.599998 -10.000000
v 23.500000 -40.599998 -15.600000
v 19.704912 -40.599998 -14.687605
v 20.102829 -40.599998 -14.589528
v 20.465710 -40.599998 -14.399073
v 20.772469 -40.599998 -14.127309
v 21.005276 -40.599998 -13.790030
v 21.150600 -40.599998 -13.406837
v 21.200001 -40.599998 -13.000000
v 17.849400 -40.599998 -9.593163
v 21.200001 -40.599998 -10.000000
v 15.500000 -40.599998 5.200000
v 19.295088 -40.599998 -8.312395
v 18.897171 -40.599998 -8.410472
v 18.534290 -40.599998 -8.600927
v 18.227531 -40.599998 -8.872691
v 17.994724 -40.599998 -9.209970
v 23.500000 -40.599998 5.200000
v 21.005276 -40.599998 -9.209970
v 20.772469 -40.599998 -8.872691
v 20.465710 -40.599998 -8.600927
v 20.102829 -40.599998 -8.410472
v 19.704912 -40.599998 -8.312395
v 21.150600 -40.599998 -9.593163
v 18.534290 -46.599998 -8.600927
v 18.227531 -46.599998 -8.872691
v 17.994724 -46.599998 -9.209970
v 18.897171 -46.599998 -8.410472
v 17.849400 -46.599998 -9.593163
v 19.295088 -46.599998 -8.312395
v 17.799999 -46.599998 -10.000000
v 19.704912 -46.599998 -8.312395
v 20.102829 -46.599998 -8.410472
v 20.465710 -46.599998 -8.600927
v 20.772469 -46.599998 -8.872691
v 21.005276 -46.599998 -9.209970
v 21.150600 -46.599998 -9.593163
v 17.799999 -46.599998 -13.000000
v 21.200001 -46.599998 -10.000000
v 17.849400 -46.599998 -13.406837
v 17.994724 -46.599998 -13.790030
v 18.227531 -46.599998 -14.127309
v 18.534290 -46.599998 -14.399073
v 18.897171 -46.599998 -14.589528
v 19.295088 -46.599998 -14.687605
v 21.200001 -46.599998 -13.000000
v 21.150600 -46.599998 -13.406837
v 21.005276 -46.599998 -13.790030
v 20.772469 -46.599998 -14.127309
v 20.465710 -46.599998 -14.399073
v 20.102829 -46.599998 -14.589528
v 19.704912 -46.599998 -14.687605
v 21.150600 -40.599998 -9.593163
v 21.200001 -40.599998 -10.000000
v 21.005276 -40.599998 -9.209970
v 20.772469 -40.599998 -8.872691
v 20.465710 -40.599998 -8.600927
v 20.102829 -40.599998 -8.410472
v 19.704912 -40.599998 -8.312395
v 19.295088 -40.599998 -8.312395
v 18.897171 -40.599998 -8.410472
v 18.534290 -40.599998 -8.600927
v 18.227531 -40.599998 -8.872691
v 17.994724 -40.599998 -9.209970
v 17.849400 -40.599998 -9.593163
v 17.799999 -40.599998 -10.000000
v 17.799999 -40.599998 -13.000000
v 17.849400 -40.599998 -13.406837
v 17.994724 -40.599998 -13.790030
v 18.227531 -40.599998 -14.127309
v 18.534290 -40.599998 -14.399073
v 18.897171 -40.599998 -14.589528
v 19.295088 -40.599998 -14.687605
v 19.704912 -40.599998 -14.687605
v 20.102829 -40.599998 -14.589528
v 20.465710 -40.599998 -14.399073
v 20.772469 -40.599998 -14.127309
v 21.005276 -40.599998 -13.790030
v 21.150600 -40.599998 -13.406837
v 21.200001 -40.599998 -13.000000
vn 0.000000 0.000000 1.000000
vn 0.000000 0.000000 1.000000
vn -1.000000 0.000000 0.000000
vn -1.000000 0.000000 0.000000
vn -1.000000 -0.000000 0.000000
vn -1.000000 0.000000 -0.000000
vn 1.000000 0.000000 0.000000
vn 1.000000 0.000000 -0.000000
vn 1.000000 0.000000 0.000000
vn 1.000000 0.000000 -0.000000
vn 0.000000 1.000000 0.000000
vn 0.000000 1.000000 0.000000
vn 0.000000 1.000000 0.000000
vn 0.000000 1.000000 0.000000
vn 0.000000 1.000000 0.000000
vn 0.000000 1.000000 0.000000
vn 0.000000 1.000000 0.000000
vn 0.000000 1.000000 0.000000
vn 0.000000 1.000000 0.000000
vn 0.000000 1.000000 0.000000
vn 0.000000 1.000000 0.000000
vn 0.000000 1.000000 0.000000
vn 0.000000 1.000000 0.000000
vn 0.000000 1.000000 0.000000
vn 0.000000 1.000000 0.000000
vn 0.000000 1.000000 0.000000
vn 0.000000 1.000000 0.000000
vn 0.000000 1.000000 0.000000
vn 0.000000 1.000000 0.000000
vn 0.000000 1.000000 0.000000
vn 0.000000 1.000000 0.000000
vn 0.000000 1.000000 0.000000
vn 0.000000 1.000000 0.000000
vn 0.000000 1.000000 0.000000
vn 0.000000 1.000000 0.000000
vn 0.000000 1.000000 0.000000
vn 0.000000 1.000000 0.000000
vn 0.000000 1.000000 0.000000
vn 0.000000 1.000000 0.000000
vn 0.000000 1.000000 0.000000
vn 0.000000 1.000000 0.000000
vn 0.000000 1.000000 0.000000
vn 0.000000 -1.000000 0.000000
vn 0.000000 -1.000000 0.000000
vn 0.000000 -0.928477 -0.371391
vn -0.000000 -0.928477 -0.371391
vn -0.000000 -1.000000 0.000000
vn 0.000000 -1.000000 0.000000
vn -0.000000 -1.000000 0.000000
vn 0.000000 -1.000000 0.000000
vn -0.000000 -1.000000 0.000000
vn 0.000000 -1.000000 0.000000
vn 0.000000 -1.000000 0.000000
vn -0.000000 -1.000000 0.000000
vn 0.000000 -1.000000 0.000000
vn 0.000000 -1.000000 0.000000
vn 0.000000 -1.000000 0.000000
vn 0.000000 -1.000000 0.000000
vn 0.000000 -1.000000 0.000000
vn 0.000000 -1.000000 0.000000
vn 0.000000 -1.000000 0.000000
vn 0.000000 -1.000000 0.000000
vn -0.000000 -1.000000 0.000000
vn -0.000000 -1.000000 0.000000
vn -0.000000 -1.000000 0.000000
vn -0.000000 -1.000000 0.000000
vn -0.000000 -1.000000 0.000000
vn -0.000000 -1.000000 0.000000
vn 0.000000 -1.000000 0.000000
vn 0.000000 -1.000000 0.000000
vn 0.000000 -1.000000 0.000000
vn 0.000000 -1.000000 0.000000
vn 0.000000 -1.000000 0.000000
vn 0.000000 -1.000000 0.000000
vn 0.000000 -1.000000 0.000000
vn 0.000000 -1.000000 0.000000
vn 0.000000 -1.000000 0.000000
vn 0.000000 -1.000000 0.000000
vn 0.000000 0.000000 -1.000000
vn 0.000000 0.000000 -1.000000
vn -0.992708 0.000000 -0.120540
vn -0.992708 -0.000000 -0.120540
vn -0.935017 -0.000000 -0.354602
vn -0.935017 0.000000 -0.354602
vn -0.822984 -0.000000 -0.568065
vn -0.822984 0.000000 -0.568065
vn -0.663122 -0.000000 -0.748512
vn -0.663122 0.000000 -0.748512
vn -0.464725 -0.000000 -0.885455
vn -0.464725 0.000000 -0.885455
vn -0.239314 -0.000000 -0.970942
vn -0.239314 0.000000 -0.970942
vn 0.000000 0.000000 -1.000000
vn 0.000000 0.000000 -1.000000
vn 0.239314 0.000000 -0.970942
vn 0.239314 0.000000 -0.970942
vn 0.464725 0.000000 -0.885455
vn 0.464725 0.000000 -0.885455
vn 0.663122 0.000000 -0.748512
vn 0.663122 0.000000 -0.748512
vn 0.822984 0.000000 -0.568065
vn 0.822984 0.000000 -0.568065
vn 0.935017 0.000000 -0.354602
vn 0.935017 0.000000 -0.354602
vn 0.992708 0.000000 -0.120540
vn 0.992708 0.000000 -0.120540
vn 1.000000 0.000000 -0.000000
vn 1.000000 0.000000 0.000000
vn 0.992708 0.000000 0.120540
vn 0.992708 0.000000 0.120540
vn 0.935017 0.000000 0.354602
vn 0.935017 0.000000 0.354602
vn 0.822984 0.000000 0.568065
vn 0.822984 0.000000 0.568065
vn 0.464725 0.000000 0.885455
vn 0.663122 0.000000 0.748512
vn 0.663122 0.000000 0.748512
vn 0.464725 0.000000 0.885455
vn 0.000000 0.000000 1.000000
vn 0.239314 0.000000 0.970942
vn 0.239314 0.000000 0.970942
vn 0.000000 0.000000 1.000000
vn -0.239314 0.000000 0.970942
vn -0.239314 0.000000 0.970942
vn -0.464725 0.000000 0.885455
vn -0.464725 0.000000 0.885455
vn -0.663122 0.000000 0.748512
vn -0.663122 0.000000 0.748512
vn -0.822984 0.000000 0.568065
vn -0.822984 0.000000 0.568065
vn -0.935017 0.000000 0.354602
vn -0.935017 0.000000 0.354602
vn -0.992708 0.000000 0.120540
vn -0.992708 0.000000 0.120540
vn -1.000000 0.000000 0.000000
vn -1.000000 -0.000000 -0.000000
f 1//1 2//1 3//1
f 1//2 3//2 4//2
f 5//3 6//3 7//3
f 2//4 5//4 8//4
f 2//5 8//5 3//5
f 2//6 6//6 5//6
f 1//7 4//7 9//7
f 10//8 1//8 9//8
f 11//9 10//9 12//9
f 11//10 1//10 10//10
f 13//11 14//11 15//11
f 16//12 15//12 14//12
f 17//13 14//13 13//13
f 18//14 16//14 14//14
f 19//15 14//15 17//15
f 20//16 18//16 14//16
f 21//17 20//17 14//17
f 22//18 19//18 23//18
f 22//19 23//19 24//19
f 22//20 24//20 25//20
f 22//21 25//21 26//21
f 22//22 26//22 27//22
f 22//23 27//23 28//23
f 22//24 14//24 19//24
f 29//25 22//25 28//25
f 30//26 21//26 14//26
f 31//27 22//27 29//27
f 32//28 33//28 34//28
f 32//29 34//29 35//29
f 32//30 35//30 36//30
f 32//31 36//31 37//31
f 32//32 37//32 30//32
f 32//33 30//33 14//33
f 38//34 39//34 40//34
f 38//35 40//35 41//35
f 38//36 41//36 42//36
f 38//37 42//37 43//37
f 38//38 43//38 33//38
f 38//39 33//39 32//39
f 38//40 22//40 31//40
f 38//41 31//41 44//41
f 38//42 44//42 39//42
f 8//43 9//43 3//43
f 9//44 4//44 3//44
f 10//45 9//45 8//45
f 10//46 8//46 5//46
f 45//47 5//47 46//47
f 47//48 46//48 5//48
f 48//49 5//49 45//49
f 49//50 47//50 5//50
f 50//51 5//51 48//51
f 51//52 49//52 5//52
f 52//53 5//53 50//53
f 10//54 5//54 52//54
f 53//55 10//55 52//55
f 54//56 10//56 53//56
f 55//57 10//57 54//57
f 56//58 10//58 55//58
f 57//59 10//59 56//59
f 7//60 58//60 51//60
f 7//61 51//61 5//61
f 59//62 10//62 57//62
f 60//63 58//63 7//63
f 61//64 60//64 7//64
f 62//65 61//65 7//65
f 63//66 62//66 7//66
f 64//67 63//67 7//67
f 65//68 64//68 7//68
f 12//69 59//69 66//69
f 12//70 66//70 67//70
f 12//71 67//71 68//71
f 12//72 68//72 69//72
f 12//73 69//73 70//73
f 12//74 70//74 71//74
f 12//75 71//75 72//75
f 12//76 72//76 65//76
f 12//77 65//77 7//77
f 12//78 10//78 59//78
f 7//79 11//79 12//79
f 6//80 11//80 7//80
f 73//81 74//81 59//81
f 73//82 59//82 57//82
f 75//83 57//83 56//83
f 75//84 73//84 57//84
f 76//85 56//85 55//85
f 76//86 75//86 56//86
f 77//87 55//87 54//87
f 77//88 76//88 55//88
f 78//89 54//89 53//89
f 78//90 77//90 54//90
f 79//91 53//91 52//91
f 79//92 78//92 53//92
f 80//93 52//93 50//93
f 80//94 79//94 52//94
f 81//95 50//95 48//95
f 81//96 80//96 50//96
f 82//97 48//97 45//97
f 82//98 81//98 48//98
f 83//99 45//99 46//99
f 83//100 82//100 45//100
f 84//101 46//101 47//101
f 84//102 83//102 46//102
f 85//103 47//103 49//103
f 85//104 84//104 47//104
f 86//105 49//105 51//105
f 86//106 85//106 49//106
f 87//107 86//107 51//107
f 87//108 51//108 58//108
f 88//109 87//109 58//109
f 88//110 58//110 60//110
f 89//111 60//111 61//111
f 89//112 88//112 60//112
f 90//113 61//113 62//113
f 90//114 89//114 61//114
f 91//115 63//115 64//115
f 91//116 62//116 63//116
f 91//117 90//117 62//117
f 92//118 91//118 64//118
f 93//119 65//119 72//119
f 93//120 64//120 65//120
f 93//121 92//121 64//121
f 94//122 93//122 72//122
f 95//123 72//123 71//123
f 95//124 94//124 72//124
f 96//125 71//125 70//125
f 96//126 95//126 71//126
f 97//127 70//127 69//127
f 97//128 96//128 70//128
f 98//129 69//129 68//129
f 98//130 97//130 69//130
f 99//131 68//131 67//131
f 99//132 98//132 68//132
f 100//133 67//133 66//133
f 100//134 99//134 67//134
f 100//135 66//135 59//135
f 74//136 100//136 59//136
